<?xml version="1.0" standalone="no"?><!DOCTYPE svg PUBLIC "-//W3C//DTD SVG 1.1//EN" "http://www.w3.org/Graphics/SVG/1.1/DTD/svg11.dtd"><svg t="1586682882487" class="icon" viewBox="0 0 1024 1024" version="1.1" xmlns="http://www.w3.org/2000/svg" p-id="1053" xmlns:xlink="http://www.w3.org/1999/xlink" width="200" height="200"><defs><style type="text/css"></style></defs><path d="M706.5 810.8H323c-14.7 0.6-26.4 12.7-26.4 27.4s11.6 26.8 26.4 27.4h383.5c14.7-0.6 26.4-12.7 26.4-27.4s-11.7-26.8-26.4-27.4z m73.2-655.2H246.5c-31 0-60.7 12.3-82.6 34.2-21.9 21.9-34.2 51.6-34.2 82.6V639c0 64.6 52.4 116.9 116.9 116.9h533.2c64.5 0 116.8-52.3 116.8-116.9V272.7c0-31-12.2-60.8-34.2-82.7-21.9-22-51.6-34.4-82.7-34.4z m58.6 483.5c0 15.5-6.1 30.4-17.1 41.3-11 11-25.8 17.1-41.3 17.1H246.6c-15.5 0-30.4-6.2-41.3-17.1-11-11-17.1-25.8-17.1-41.4V272.7c0-15.5 6.1-30.4 17.1-41.4 11-11 25.9-17.2 41.4-17.2h533.2c15.5-0.1 30.4 6.1 41.4 17 11 11 17.2 25.8 17.2 41.4v366.6z m0 0" fill="#ffffff" p-id="1054"></path><path d="M453.8 355.6c0-38.2-31-69.2-69.2-69.2s-69.2 31-69.2 69.2c0 19.1 7.2 35.8 19.1 47.7-2.4 14.3-4.8 28.6-4.8 43 0 66.8 35.8 124.1 85.9 155.1l14.3-57.3c-28.6-23.9-45.3-59.7-45.3-97.9 0-7.2 0-14.3 2.4-21.5 35.7 0.1 66.8-30.9 66.8-69.1z m59.6-38.2c23.9 0 45.4 7.2 64.4 16.7-2.4 7.2-4.8 16.7-4.8 23.9 0 38.2 31 69.2 69.2 69.2s69.2-31 69.2-69.2-31-69.2-69.2-69.2c-9.5 0-16.7 2.4-26.3 4.8-28.6-19.1-64.4-31-102.6-31-26.3 0-52.5 4.8-74 16.7l31 45.4c14.5-4.9 28.8-7.3 43.1-7.3z m128.9 133.7c-2.4 47.7-28.6 88.3-69.2 107.4-11.9-21.5-35.8-38.2-62.1-38.2-38.2 0-69.2 31-69.2 69.2s31 69.2 69.2 69.2c28.6 0 52.5-16.7 64.4-43 71.6-26.3 121.7-93.1 121.7-171.9V432c-2.3 2.4-54.8 19.1-54.8 19.1z m0 0" fill="#ffffff" p-id="1055"></path></svg>