<?xml version="1.0" standalone="no"?><!DOCTYPE svg PUBLIC "-//W3C//DTD SVG 1.1//EN" "http://www.w3.org/Graphics/SVG/1.1/DTD/svg11.dtd"><svg t="1586681554055" class="icon" viewBox="0 0 1024 1024" version="1.1" xmlns="http://www.w3.org/2000/svg" p-id="865" xmlns:xlink="http://www.w3.org/1999/xlink" width="200" height="200"><defs><style type="text/css"></style></defs><path d="M537.53856 712.349013c-51.8144 0-93.969067-42.14784-93.969067-93.96224s42.154667-93.969067 93.969067-93.969066 93.96224 42.154667 93.96224 93.969066-42.14784 93.96224-93.96224 93.96224z m0-127.85664a33.8944 33.8944 0 1 0 33.887573 33.8944 33.928533 33.928533 0 0 0-33.887573-33.8944z" fill="#ffffff" p-id="866"></path><path d="M895.255893 436.729173a41.485653 41.485653 0 0 0-38.46144-4.430506l-54.92736 21.333333-234.2912-240.00512V185.002667h97.655467a43.267413 43.267413 0 0 0 43.219627-43.219627V67.242667a43.267413 43.267413 0 0 0-43.219627-43.219627H550.720853a43.267413 43.267413 0 0 0-43.219626 43.219627v146.384213L273.2032 453.632l-54.92736-21.333333A41.49248 41.49248 0 0 0 176.080213 439.637333a42.12736 42.12736 0 0 0-14.336 31.921494v510.429866a23.401813 23.401813 0 0 0 23.401814 23.401814h13.277866a23.394987 23.394987 0 0 0 23.442774-23.42912V498.128213l44.284586 17.2032a36.222293 36.222293 0 0 0 39.082667-8.471893l232.30464-238.004907 232.331947 238.004907a36.222293 36.222293 0 0 0 39.089493 8.471893l44.284587-17.2032v483.833174a23.401813 23.401813 0 0 0 23.401813 23.401813h13.27104a23.401813 23.401813 0 0 0 23.401813-23.401813V470.971733a41.485653 41.485653 0 0 0-18.06336-34.24256z m-327.68-352.631466h80.800427V124.928H567.575893v-40.830293z" fill="#ffffff" p-id="867"></path><path d="M571.671893 378.026667a46.496427 46.496427 0 0 0-68.266666 0L315.931307 580.683093a85.777067 85.777067 0 0 0-22.87616 58.415787v342.862507a23.401813 23.401813 0 0 0 23.401813 23.401813H329.728a23.394987 23.394987 0 0 0 23.394987-23.401813V639.09888a25.88672 25.88672 0 0 1 6.90176-17.626453l177.493333-191.87712 177.493333 191.87712a25.88672 25.88672 0 0 1 6.90176 17.626453v342.862507a23.401813 23.401813 0 0 0 23.401814 23.401813h13.27104a23.401813 23.401813 0 0 0 23.401813-23.401813V639.09888A85.8112 85.8112 0 0 0 759.125333 580.676267z" fill="#ffffff" p-id="868"></path><path d="M601.647787 744.741547h-126.634667a57.678507 57.678507 0 0 0-57.61024 57.61024v144.930133a57.67168 57.67168 0 0 0 57.61024 57.603413h126.634667a57.67168 57.67168 0 0 0 57.603413-57.603413v-144.930133a57.678507 57.678507 0 0 0-57.603413-57.61024zM599.176533 944.810667H477.477547v-139.994454H599.176533z" fill="#ffffff" p-id="869"></path></svg>